<?xml version="1.0" encoding="utf-8"?>
<!-- Generator: Adobe Illustrator 22.0.1, SVG Export Plug-In . SVG Version: 6.00 Build 0)  -->
<svg version="1.1" id="Capa_1" xmlns="http://www.w3.org/2000/svg" xmlns:xlink="http://www.w3.org/1999/xlink" x="0px" y="0px"
	 width="297px" height="297px" viewBox="0 0 297 297" style="enable-background:new 0 0 297 297;" xml:space="preserve">
<g>
	<path d="M148.5,190.7c9.9,0,17.9-8,17.9-17.9c0-9.9-8-17.9-17.9-17.9s-17.9,8-17.9,17.9C130.6,182.7,138.6,190.7,148.5,190.7z"/>
	<path d="M297,108c0-9.9-8-17.9-17.9-17.9c-9.9,0-17.9,8-17.9,17.9c0,3.2,0.9,6.2,2.3,8.8L247.3,133c-4.8-11.3-7.2-28.8-7.8-42.2
		c5-3.2,8.4-8.8,8.4-15.2c0-9.9-8-17.9-17.9-17.9c-9.9,0-17.9,8-17.9,17.9c0,4.5,1.6,8.5,4.3,11.7c-10.5,18-25.1,35.4-34.1,45.4
		c-8-16.6-17-49.7-22.5-75.6c4.1-3.3,6.7-8.3,6.7-13.9c0-9.9-8-17.9-17.9-17.9s-17.9,8-17.9,17.9c0,5.6,2.6,10.6,6.7,13.9
		c-5.6,25.8-14.6,58.9-22.5,75.6c-9.1-10-23.7-27.4-34.1-45.4c2.7-3.1,4.3-7.2,4.3-11.7c0-9.9-8-17.9-17.9-17.9
		c-9.9,0-17.9,8-17.9,17.9c0,6.4,3.4,12,8.4,15.2c-0.6,13.4-3,30.9-7.8,42.2l-16.2-16.2c1.5-2.6,2.3-5.6,2.3-8.8
		c0-9.9-8-17.9-17.9-17.9C8,90.1,0,98.1,0,108c0,7.2,4.3,13.5,10.5,16.3c6.4,32.3,14.8,78.5,14.8,89v48.6c0,5.4,4.4,9.8,9.8,9.8
		h226.8c5.4,0,9.8-4.4,9.8-9.8v-48.6c0-10.5,8.4-56.7,14.8-89C292.7,121.5,297,115.2,297,108z M44.4,155.4c3.8,3.8,10,3.8,13.9,0
		c9.3-9.3,14.1-26,16.5-41c15.9,22.4,33.4,40,34.4,41c3.8,3.8,10.1,3.8,13.9,0c9.9-9.9,19-37,25.5-61.1
		c6.5,24.1,15.6,51.2,25.5,61.1c1.8,1.8,4.3,2.9,6.9,2.9c2.6,0,5.1-1,6.9-2.9c1-1,18.5-18.6,34.4-41c2.4,15,7.2,31.7,16.5,41
		c3.8,3.8,10.1,3.8,13.9,0l9.7-9.7c-3.6,19.5-7.9,43.3-9.5,57.8H44.2c-1.7-14.5-5.9-38.3-9.5-57.8L44.4,155.4z M252.1,252.1H44.9
		v-29h207.2V252.1z"/>
</g>
</svg>
